<svg width="23" height="22" viewBox="0 0 23 22" fill="none" xmlns="http://www.w3.org/2000/svg">
<path d="M18.0812 1.48908V1.58908H18.1812H19.9105C21.4644 1.58908 22.7166 2.84125 22.7166 4.3952V19.0939C22.7166 20.6478 21.4644 21.9 19.9105 21.9H2.90611C1.35217 21.9 0.1 20.6478 0.1 19.0939V4.3952C0.1 2.84125 1.35217 1.58908 2.90611 1.58908H4.63537H4.73537V1.48908V0.912664C4.73537 0.460002 5.07834 0.1 5.52402 0.1C5.97316 0.1 6.33668 0.463525 6.33668 0.912664V1.48908V1.58908H6.43668H10.4956H10.5956V1.48908V0.912664C10.5956 0.463525 10.9592 0.1 11.4083 0.1C11.8574 0.1 12.221 0.463525 12.221 0.912664V1.48908V1.58908H12.321H16.3799H16.4799V1.48908V0.912664C16.4799 0.460002 16.8229 0.1 17.2686 0.1C17.7177 0.1 18.0812 0.463525 18.0812 0.912664V1.48908ZM4.73537 3.29039V3.19039H4.63537H2.90611C2.25187 3.19039 1.70131 3.7141 1.70131 4.3952V6.10044V6.20044H1.80131H21.0633H21.1633V6.10044V4.3952C21.1633 3.73953 20.6142 3.19039 19.9585 3.19039H18.2293H18.1293V3.29039V3.86681C18.1293 4.31595 17.7657 4.67948 17.3166 4.67948C16.8675 4.67948 16.5039 4.31595 16.5039 3.86681V3.29039V3.19039H16.4039H12.345H12.245V3.29039V3.86681C12.245 4.31595 11.8815 4.67948 11.4323 4.67948C10.9832 4.67948 10.6197 4.31595 10.6197 3.86681V3.29039V3.19039H10.5197H6.4607H6.3607V3.29039V3.86681C6.3607 4.31595 5.99717 4.67948 5.54803 4.67948C5.0989 4.67948 4.73537 4.31595 4.73537 3.86681V3.29039ZM1.80131 7.80175H1.70131V7.90175V19.0699C1.70131 19.7255 2.25045 20.2747 2.90611 20.2747H19.9105C20.5633 20.2747 21.1153 19.7524 21.1153 19.0939V7.90175V7.80175H21.0153H1.80131Z" fill="#C2C2C2" stroke="white" stroke-width="0.2"/>
<path d="M4.68351 9.97158H6.8691C7.22216 9.97158 7.51364 10.2631 7.51364 10.6161V12.2973C7.51364 12.6504 7.22216 12.9419 6.8691 12.9419H4.68351C4.33044 12.9419 4.03896 12.6504 4.03896 12.2973V10.6161C4.03896 10.2631 4.33044 9.97158 4.68351 9.97158Z" fill="#C2C2C2" stroke="white" stroke-width="0.2"/>
<path d="M18.1333 12.9419H15.9477C15.5946 12.9419 15.3031 12.6504 15.3031 12.2973V10.6161C15.3031 10.2631 15.5946 9.97158 15.9477 9.97158H18.1333C18.4863 9.97158 18.7778 10.2631 18.7778 10.6161V12.2973C18.7778 12.6504 18.4863 12.9419 18.1333 12.9419Z" fill="#C2C2C2" stroke="white" stroke-width="0.2"/>
<path d="M10.3275 9.97158H12.5131C12.8383 9.97158 13.1351 10.2596 13.1577 10.6192V12.2973C13.1577 12.6504 12.8662 12.9419 12.5131 12.9419H10.3275C9.97448 12.9419 9.68301 12.6504 9.68301 12.2973V10.6161C9.68301 10.2631 9.97448 9.97158 10.3275 9.97158Z" fill="#C2C2C2" stroke="white" stroke-width="0.2"/>
<path d="M4.68351 15.1347H6.8691C7.22216 15.1347 7.51364 15.4261 7.51364 15.7792V17.4604C7.51364 17.8135 7.22216 18.105 6.8691 18.105H4.68351C4.33044 18.105 4.03896 17.8135 4.03896 17.4604V15.7792C4.03896 15.4261 4.33044 15.1347 4.68351 15.1347Z" fill="#C2C2C2" stroke="white" stroke-width="0.2"/>
<path d="M10.3275 15.1347H12.5131C12.8383 15.1347 13.1351 15.4227 13.1577 15.7822V17.4604C13.1577 17.8135 12.8662 18.105 12.5131 18.105H10.3275C9.97448 18.105 9.68301 17.8135 9.68301 17.4604V15.7792C9.68301 15.4261 9.97448 15.1347 10.3275 15.1347Z" fill="#C2C2C2" stroke="white" stroke-width="0.2"/>
<path d="M18.3714 14.7942L18.3714 14.7942L18.372 14.7937C18.6452 14.5205 19.1102 14.5205 19.3834 14.7937C19.6566 15.0668 19.6566 15.5079 19.3834 15.781L17.2218 17.9426C17.0731 18.0913 16.9067 18.1535 16.7161 18.1535C16.5255 18.1535 16.3591 18.0913 16.2104 17.9426L15.0576 16.7898C14.7844 16.5166 14.7844 16.0756 15.0576 15.8024C15.3307 15.5292 15.7718 15.5292 16.045 15.8024L16.6214 16.3788L16.6916 16.449L16.7623 16.3793L18.3714 14.7942Z" fill="#C2C2C2" stroke="white" stroke-width="0.2"/>
</svg>
