<svg width="19" height="18" viewBox="0 0 19 18" fill="none" xmlns="http://www.w3.org/2000/svg">
<path d="M16.2904 1.21834H14.8755V0.746725C14.8755 0.334061 14.5415 0 14.1288 0C13.7162 0 13.4017 0.334061 13.4017 0.746725V1.21834H10.0808V0.746725C10.0808 0.334061 9.74673 0 9.33406 0C8.9214 0 8.58734 0.334061 8.58734 0.746725V1.21834H5.26638V0.746725C5.26638 0.334061 4.93231 0 4.51965 0C4.10699 0 3.79258 0.334061 3.79258 0.746725V1.21834H2.37773C1.06114 1.21834 0 2.27948 0 3.59607V15.6223C0 16.9389 1.06114 18 2.37773 18H16.2904C17.607 18 18.6681 16.9389 18.6681 15.6223V3.59607C18.6681 2.27948 17.607 1.21834 16.2904 1.21834ZM2.37773 2.69214H3.79258V3.16375C3.79258 3.57642 4.12664 3.91048 4.5393 3.91048C4.95196 3.91048 5.28603 3.57642 5.28603 3.16375V2.69214H8.60699V3.16375C8.60699 3.57642 8.94105 3.91048 9.35371 3.91048C9.76637 3.91048 10.1004 3.57642 10.1004 3.16375V2.69214H13.4214V3.16375C13.4214 3.57642 13.7555 3.91048 14.1681 3.91048C14.5808 3.91048 14.9148 3.57642 14.9148 3.16375V2.69214H16.3297C16.821 2.69214 17.2336 3.1048 17.2336 3.59607V4.99127H1.4738V3.59607C1.4738 3.08515 1.88646 2.69214 2.37773 2.69214ZM16.2904 16.5065H2.37773C1.88646 16.5065 1.4738 16.0939 1.4738 15.6026V6.46506H17.1943V15.6223C17.1943 16.1135 16.7817 16.5065 16.2904 16.5065Z" fill="black"/>
<path d="M5.62004 8.07666H3.83183C3.49777 8.07666 3.22266 8.35177 3.22266 8.68583V10.0614C3.22266 10.3954 3.49777 10.6705 3.83183 10.6705H5.62004C5.9541 10.6705 6.22921 10.3954 6.22921 10.0614V8.68583C6.22921 8.35177 5.9541 8.07666 5.62004 8.07666Z" fill="black"/>
<path d="M13.0479 10.6705H14.8361C15.1702 10.6705 15.4453 10.3954 15.4453 10.0614V8.68583C15.4453 8.35177 15.1702 8.07666 14.8361 8.07666H13.0479C12.7138 8.07666 12.4387 8.35177 12.4387 8.68583V10.0614C12.4387 10.3954 12.7138 10.6705 13.0479 10.6705Z" fill="black"/>
<path d="M10.238 8.07666H8.44975C8.11568 8.07666 7.84058 8.35177 7.84058 8.68583V10.0614C7.84058 10.3954 8.11568 10.6705 8.44975 10.6705H10.238C10.572 10.6705 10.8471 10.3954 10.8471 10.0614V8.68583C10.8275 8.35177 10.5524 8.07666 10.238 8.07666Z" fill="black"/>
<path d="M5.62004 12.3013H3.83183C3.49777 12.3013 3.22266 12.5764 3.22266 12.9104V14.286C3.22266 14.62 3.49777 14.8952 3.83183 14.8952H5.62004C5.9541 14.8952 6.22921 14.62 6.22921 14.286V12.9104C6.22921 12.5764 5.9541 12.3013 5.62004 12.3013Z" fill="black"/>
<path d="M10.238 12.3013H8.44975C8.11568 12.3013 7.84058 12.5764 7.84058 12.9104V14.286C7.84058 14.62 8.11568 14.8952 8.44975 14.8952H10.238C10.572 14.8952 10.8471 14.62 10.8471 14.286V12.9104C10.8275 12.5764 10.5524 12.3013 10.238 12.3013Z" fill="black"/>
<path d="M14.9739 12.0461L13.6573 13.343L13.1857 12.8714C12.9303 12.616 12.5176 12.616 12.2622 12.8714C12.0067 13.1269 12.0067 13.5395 12.2622 13.795L13.2054 14.7382C13.3429 14.8758 13.5001 14.9347 13.677 14.9347C13.8539 14.9347 14.0111 14.8758 14.1486 14.7382L15.9172 12.9697C16.1726 12.7142 16.1726 12.3015 15.9172 12.0461C15.6617 11.7906 15.2294 11.7906 14.9739 12.0461Z" fill="black"/>
</svg>
