<svg width="21" height="22" viewBox="0 0 21 22" fill="none" xmlns="http://www.w3.org/2000/svg">
<path d="M19.9046 0.1H12.5713C12.32 0.1 12.0789 0.199837 11.9012 0.377549C11.7235 0.55526 11.6237 0.796288 11.6237 1.04761V11.5237C11.6237 11.775 11.7235 12.0161 11.9012 12.1938M19.9046 0.1L11.9012 12.1938M19.9046 0.1C20.1559 0.1 20.3969 0.199837 20.5746 0.377549C20.7523 0.55526 20.8522 0.796288 20.8522 1.04761V11.5237C20.8522 11.775 20.7523 12.0161 20.5746 12.1938C20.3969 12.3715 20.1559 12.4713 19.9046 12.4713H12.5713C12.32 12.4713 12.0789 12.3715 11.9012 12.1938M19.9046 0.1L11.9012 12.1938M18.8569 10.5761H18.9569V10.4761V2.09522V1.99522H18.8569H13.6189H13.5189V2.09522V10.4761V10.5761H13.6189H18.8569Z" fill="#C2C2C2" stroke="white" stroke-width="0.2"/>
<path d="M7.33327 20.0043H7.43327V19.9043V11.5234V11.4234H7.33327H2.09522H1.99522V11.5234V19.9043V20.0043H2.09522H7.33327ZM1.04761 9.52822H8.38088C8.6322 9.52822 8.87323 9.62806 9.05094 9.80577C9.22865 9.98348 9.32849 10.2245 9.32849 10.4758V20.9519C9.32849 21.2032 9.22865 21.4443 9.05094 21.622C8.87323 21.7997 8.6322 21.8995 8.38088 21.8995H1.04761C0.796288 21.8995 0.55526 21.7997 0.377549 21.622C0.199837 21.4443 0.1 21.2032 0.1 20.9519V10.4758C0.1 10.2245 0.199837 9.98348 0.377549 9.80577C0.55526 9.62806 0.796288 9.52822 1.04761 9.52822Z" fill="#C2C2C2" stroke="white" stroke-width="0.2"/>
<path d="M7.33327 6.38566H7.43327V6.28566V2.09522V1.99522H7.33327H2.09522H1.99522V2.09522V6.28566V6.38566H2.09522H7.33327ZM1.04761 0.1H8.38088C8.6322 0.1 8.87323 0.199837 9.05094 0.377549C9.22865 0.55526 9.32849 0.796288 9.32849 1.04761V7.33327C9.32849 7.58459 9.22865 7.82562 9.05094 8.00333C8.87323 8.18104 8.6322 8.28088 8.38088 8.28088H1.04761C0.796288 8.28088 0.55526 8.18104 0.377549 8.00333C0.199837 7.82562 0.1 7.58459 0.1 7.33327V1.04761C0.1 0.796288 0.199837 0.55526 0.377549 0.377549C0.55526 0.199837 0.796288 0.1 1.04761 0.1Z" fill="#C2C2C2" stroke="white" stroke-width="0.2"/>
<path d="M18.8569 20.0048H18.9569V19.9048V15.7144V15.6144H18.8569H13.6189H13.5189V15.7144V19.9048V20.0048H13.6189H18.8569ZM12.5713 13.7191H19.9046C20.1559 13.7191 20.3969 13.819 20.5746 13.9967C20.7523 14.1744 20.8522 14.4154 20.8522 14.6668V20.9524C20.8522 21.2037 20.7523 21.4448 20.5746 21.6225C20.3969 21.8002 20.1559 21.9 19.9046 21.9H12.5713C12.32 21.9 12.0789 21.8002 11.9012 21.6225C11.7235 21.4448 11.6237 21.2037 11.6237 20.9524V14.6668C11.6237 14.4154 11.7235 14.1744 11.9012 13.9967C12.0789 13.819 12.32 13.7191 12.5713 13.7191Z" fill="#C2C2C2" stroke="white" stroke-width="0.2"/>
</svg>
