<svg width="19" height="18" viewBox="0 0 19 18" fill="none" xmlns="http://www.w3.org/2000/svg">
<path d="M17.1903 0H11.1904C10.9631 0 10.745 0.0903052 10.5843 0.251049C10.4236 0.411793 10.3333 0.629809 10.3333 0.857135V9.42849C10.3333 9.65581 10.4236 9.87383 10.5843 10.0346C10.745 10.1953 10.9631 10.2856 11.1904 10.2856H17.1903C17.4177 10.2856 17.6357 10.1953 17.7964 10.0346C17.9572 9.87383 18.0475 9.65581 18.0475 9.42849V0.857135C18.0475 0.629809 17.9572 0.411793 17.7964 0.251049C17.6357 0.0903052 17.4177 0 17.1903 0ZM16.3332 8.57135H12.0475V1.71427H16.3332V8.57135Z" fill="#595959"/>
<path d="M7.76187 7.71387H1.76192C1.53459 7.71387 1.31658 7.80417 1.15583 7.96492C0.99509 8.12566 0.904785 8.34368 0.904785 8.571V17.1424C0.904785 17.3697 0.99509 17.5877 1.15583 17.7484C1.31658 17.9092 1.53459 17.9995 1.76192 17.9995H7.76187C7.98919 17.9995 8.20721 17.9092 8.36795 17.7484C8.5287 17.5877 8.619 17.3697 8.619 17.1424V8.571C8.619 8.34368 8.5287 8.12566 8.36795 7.96492C8.20721 7.80417 7.98919 7.71387 7.76187 7.71387ZM6.90473 16.2852H2.61906V9.42814H6.90473V16.2852Z" fill="#595959"/>
<path d="M7.76187 0H1.76192C1.53459 0 1.31658 0.0903052 1.15583 0.251049C0.99509 0.411793 0.904785 0.629809 0.904785 0.857135V5.99995C0.904785 6.22727 0.99509 6.44529 1.15583 6.60603C1.31658 6.76677 1.53459 6.85708 1.76192 6.85708H7.76187C7.98919 6.85708 8.20721 6.76677 8.36795 6.60603C8.5287 6.44529 8.619 6.22727 8.619 5.99995V0.857135C8.619 0.629809 8.5287 0.411793 8.36795 0.251049C8.20721 0.0903052 7.98919 0 7.76187 0ZM6.90473 5.14281H2.61906V1.71427H6.90473V5.14281Z" fill="#595959"/>
<path d="M17.1903 11.1431H11.1904C10.9631 11.1431 10.745 11.2334 10.5843 11.3941C10.4236 11.5549 10.3333 11.7729 10.3333 12.0002V17.143C10.3333 17.3703 10.4236 17.5884 10.5843 17.7491C10.745 17.9098 10.9631 18.0001 11.1904 18.0001H17.1903C17.4177 18.0001 17.6357 17.9098 17.7964 17.7491C17.9572 17.5884 18.0475 17.3703 18.0475 17.143V12.0002C18.0475 11.7729 17.9572 11.5549 17.7964 11.3941C17.6357 11.2334 17.4177 11.1431 17.1903 11.1431ZM16.3332 16.2859H12.0475V12.8573H16.3332V16.2859Z" fill="#595959"/>
</svg>
