<svg width="5" height="19" viewBox="0 0 5 19" fill="none" xmlns="http://www.w3.org/2000/svg">
<path fill-rule="evenodd" clip-rule="evenodd" d="M6.1897e-08 2.41527C6.1897e-08 2.95508 0.218818 3.47279 0.608316 3.8545C0.997814 4.23621 1.52609 4.45065 2.07692 4.45065C2.62775 4.45065 3.15603 4.23621 3.54552 3.8545C3.93502 3.47279 4.15384 2.95508 4.15384 2.41527C4.15384 1.87545 3.93502 1.35774 3.54552 0.976033C3.15603 0.594325 2.62775 0.379883 2.07692 0.379883C1.52609 0.379883 0.997814 0.594325 0.608316 0.976033C0.218818 1.35774 6.1897e-08 1.87545 6.1897e-08 2.41527ZM6.1897e-08 9.19988C6.1897e-08 9.7397 0.218818 10.2574 0.608316 10.6391C0.997814 11.0208 1.52609 11.2353 2.07692 11.2353C2.62775 11.2353 3.15603 11.0208 3.54552 10.6391C3.93502 10.2574 4.15384 9.7397 4.15384 9.19988C4.15384 8.66006 3.93502 8.14236 3.54552 7.76065C3.15603 7.37894 2.62775 7.1645 2.07692 7.1645C1.52609 7.1645 0.997814 7.37894 0.608316 7.76065C0.218818 8.14236 6.1897e-08 8.66006 6.1897e-08 9.19988ZM2.07692 18.0199C1.80417 18.0199 1.5341 17.9672 1.28212 17.8649C1.03013 17.7627 0.801175 17.6127 0.608316 17.4237C0.415456 17.2347 0.262471 17.0103 0.158096 16.7634C0.0537211 16.5165 0 16.2518 0 15.9845C0 15.7172 0.0537211 15.4525 0.158096 15.2056C0.262471 14.9586 0.415456 14.7343 0.608316 14.5453C0.801175 14.3563 1.03013 14.2063 1.28212 14.104C1.5341 14.0018 1.80417 13.9491 2.07692 13.9491C2.62775 13.9491 3.15603 14.1636 3.54552 14.5453C3.93502 14.927 4.15384 15.4447 4.15384 15.9845C4.15384 16.5243 3.93502 17.042 3.54552 17.4237C3.15603 17.8054 2.62775 18.0199 2.07692 18.0199Z" fill="black"/>
</svg>
