<svg width="9" height="9" viewBox="0 0 9 9" fill="none" xmlns="http://www.w3.org/2000/svg">
<path d="M0 6.33549V8.00244H1.66695L6.58334 3.08605L4.91639 1.4191L0 6.33549ZM7.87245 1.79695C7.91365 1.75582 7.94635 1.70697 7.96865 1.6532C7.99096 1.59942 8.00244 1.54178 8.00244 1.48356C8.00244 1.42534 7.99096 1.3677 7.96865 1.31392C7.94635 1.26015 7.91365 1.2113 7.87245 1.17017L6.83227 0.129997C6.79115 0.0887886 6.7423 0.0560952 6.68852 0.0337886C6.63475 0.0114819 6.5771 0 6.51888 0C6.46067 0 6.40302 0.0114819 6.34924 0.0337886C6.29547 0.0560952 6.24662 0.0887886 6.2055 0.129997L5.39203 0.943468L7.05897 2.61042L7.87245 1.79695Z" fill="black"/>
</svg>
