<svg width="7" height="7" viewBox="0 0 7 7" fill="none" xmlns="http://www.w3.org/2000/svg">
<path d="M0.763576 3.85127H2.29073V5.39178C2.29073 5.59607 2.37118 5.79199 2.51437 5.93644C2.65757 6.08089 2.85179 6.16204 3.0543 6.16204C3.25682 6.16204 3.45103 6.08089 3.59423 5.93644C3.73743 5.79199 3.81788 5.59607 3.81788 5.39178V3.85127H5.34503C5.54754 3.85127 5.74176 3.77012 5.88496 3.62567C6.02816 3.48122 6.10861 3.2853 6.10861 3.08102C6.10861 2.87673 6.02816 2.68082 5.88496 2.53637C5.74176 2.39192 5.54754 2.31076 5.34503 2.31076H3.81788V0.770255C3.81788 0.56597 3.73743 0.370053 3.59423 0.225603C3.45103 0.0811518 3.25682 0 3.0543 0C2.85179 0 2.65757 0.0811518 2.51437 0.225603C2.37118 0.370053 2.29073 0.56597 2.29073 0.770255V2.31076H0.763576C0.561063 2.31076 0.366845 2.39192 0.223646 2.53637C0.0804481 2.68082 0 2.87673 0 3.08102C0 3.2853 0.0804481 3.48122 0.223646 3.62567C0.366845 3.77012 0.561063 3.85127 0.763576 3.85127Z" fill="white"/>
</svg>
