<svg width="18" height="22" viewBox="0 0 18 22" fill="none" xmlns="http://www.w3.org/2000/svg">
<path d="M2.2299 19.6431L2.2115 19.8096H2.37899H14.9402H15.1077L15.0892 19.6431C14.7317 16.4084 11.9895 13.8926 8.65958 13.8926C5.32962 13.8926 2.58748 16.4084 2.2299 19.6431ZM17.1692 20.3617C17.1692 21.1798 16.5057 21.85 15.6842 21.85H1.63492C0.817049 21.85 0.15 21.1822 0.15 20.3617C0.15 15.662 3.95987 11.8521 8.65958 11.8521C13.3593 11.8521 17.1692 15.662 17.1692 20.3617ZM8.65958 10.616C5.76948 10.616 3.4266 8.27307 3.4266 5.38298C3.4266 2.49288 5.76948 0.15 8.65958 0.15C11.5497 0.15 13.8926 2.49288 13.8926 5.38298C13.8926 8.27307 11.5497 10.616 8.65958 10.616ZM8.65958 8.57553C10.4228 8.57553 11.8521 7.14618 11.8521 5.38298C11.8521 3.61978 10.4228 2.19043 8.65958 2.19043C6.89638 2.19043 5.46702 3.61978 5.46702 5.38298C5.46702 7.14618 6.89638 8.57553 8.65958 8.57553Z" fill="#C2C2C2" stroke="white" stroke-width="0.3"/>
</svg>
