<svg width="25" height="22" viewBox="0 0 25 22" fill="none" xmlns="http://www.w3.org/2000/svg">
<path d="M11.2217 1.8335H16.031V2.56683H11.2217V1.8335Z" fill="#C2C2C2"/>
<path d="M7.21387 3.6665H8.81697V4.39984H7.21387V3.6665Z" fill="#C2C2C2"/>
<path d="M7.21387 5.1333H8.81697V5.86663H7.21387V5.1333Z" fill="#C2C2C2"/>
<path d="M7.21387 6.6001H8.81697V7.33343H7.21387V6.6001Z" fill="#C2C2C2"/>
<path d="M7.21387 8.06689H8.81697V8.80023H7.21387V8.06689Z" fill="#C2C2C2"/>
<path d="M7.21387 9.5332H8.81697V10.2665H7.21387V9.5332Z" fill="#C2C2C2"/>
<path d="M10.0193 3.6665H12.8247V4.39984H10.0193V3.6665Z" fill="#C2C2C2"/>
<path d="M10.0193 5.1333H12.8247V5.86663H10.0193V5.1333Z" fill="#C2C2C2"/>
<path d="M10.0193 6.6001H12.8247V7.33343H10.0193V6.6001Z" fill="#C2C2C2"/>
<path d="M10.0193 8.06689H12.8247V8.80023H10.0193V8.06689Z" fill="#C2C2C2"/>
<path d="M10.0193 9.5332H12.8247V10.2665H10.0193V9.5332Z" fill="#C2C2C2"/>
<path d="M14.0271 3.6665H20.0387V4.39984H14.0271V3.6665Z" fill="#C2C2C2"/>
<path d="M14.0271 5.1333H20.0387V5.86663H14.0271V5.1333Z" fill="#C2C2C2"/>
<path d="M14.0271 6.6001H20.0387V7.33343H14.0271V6.6001Z" fill="#C2C2C2"/>
<path d="M14.0271 8.06689H20.0387V8.80023H14.0271V8.06689Z" fill="#C2C2C2"/>
<path d="M14.0271 9.5332H20.0387V10.2665H14.0271V9.5332Z" fill="#C2C2C2"/>
<path d="M7.21387 11H8.81697V11.7333H7.21387V11Z" fill="#C2C2C2"/>
<path d="M7.21387 12.4668H8.81697V13.2001H7.21387V12.4668Z" fill="#C2C2C2"/>
<path d="M7.21387 13.9331H8.81697V14.6664H7.21387V13.9331Z" fill="#C2C2C2"/>
<path d="M10.0193 11H12.8247V11.7333H10.0193V11Z" fill="#C2C2C2"/>
<path d="M10.0193 12.4668H12.8247V13.2001H10.0193V12.4668Z" fill="#C2C2C2"/>
<path d="M10.0193 13.9331H12.8247V14.6664H10.0193V13.9331Z" fill="#C2C2C2"/>
<path d="M14.0271 11H20.0387V11.7333H14.0271V11Z" fill="#C2C2C2"/>
<path d="M14.0271 12.4668H20.0387V13.2001H14.0271V12.4668Z" fill="#C2C2C2"/>
<path d="M20.8403 0H6.41243C5.73104 0 5.21011 0.476595 5.21011 1.1V17.9667H6.01166V1.1C6.01166 0.879964 6.17193 0.733333 6.41243 0.733333H20.8403C21.0809 0.733333 21.2411 0.879964 21.2411 1.1V20.1667C21.2411 20.7901 20.7202 21.2667 20.0388 21.2667C19.3574 21.2667 18.8365 20.7901 18.8365 20.1667V18.7H2.00391V20.1667C2.00391 21.1933 2.88569 22 4.00778 22H20.0388C21.1609 22 22.0427 21.1933 22.0427 20.1667V1.1C22.0427 0.476595 21.5217 0 20.8403 0ZM4.00778 21.2667C3.32639 21.2667 2.80546 20.7901 2.80546 20.1667V19.4333H18.0349V20.1667C18.0349 20.57 18.1952 20.9367 18.4357 21.2667H4.00778Z" fill="#C2C2C2"/>
<path d="M7.21387 15.3999H8.81697V16.1332H7.21387V15.3999Z" fill="#C2C2C2"/>
<path d="M7.21387 16.8667H8.81697V17.6H7.21387V16.8667Z" fill="#C2C2C2"/>
<path d="M10.0193 15.3999H12.8247V16.1332H10.0193V15.3999Z" fill="#C2C2C2"/>
<path d="M10.0193 16.8667H12.8247V17.6H10.0193V16.8667Z" fill="#C2C2C2"/>
<path d="M14.0271 13.9331H20.0387V14.6664H14.0271V13.9331Z" fill="#C2C2C2"/>
<path d="M14.0271 15.3999H20.0387V16.1332H14.0271V15.3999Z" fill="#C2C2C2"/>
<path d="M14.0271 16.8667H20.0387V17.6H14.0271V16.8667Z" fill="#C2C2C2"/>
</svg>
